<svg width="16" height="16" viewBox="0 0 16 16" fill="none" xmlns="http://www.w3.org/2000/svg">
<rect width="16" height="16" fill="#E5E5E5"/>
<g clip-path="url(#clip0_296708_626)">
<rect width="1440" height="2076" transform="translate(-482 -213)" fill="white"/>
<path d="M13.3333 6C13.0872 6 12.8564 6.06706 12.6581 6.18391C12.5836 5.51856 12.0178 5 11.3333 5C11.0077 5 10.7086 5.11784 10.4762 5.31413C10.2428 4.92644 9.81794 4.66666 9.33325 4.66666C9.09075 4.66666 8.86288 4.73175 8.6666 4.84569V1.33334C8.66656 0.597969 8.0686 0 7.33325 0C6.59791 0 5.99991 0.597969 5.99991 1.33334V10.2546C5.99991 10.4225 5.88922 10.5088 5.84169 10.5381C5.79416 10.5674 5.66622 10.6276 5.51747 10.5527L3.37685 9.48244C3.18185 9.38478 2.96344 9.33334 2.74535 9.33334C1.96669 9.33334 1.33325 9.96681 1.33325 10.7455V11C1.33325 11.0924 1.37166 11.1807 1.43903 11.2438L5.28638 14.8346C6.09169 15.5859 7.14185 16 8.24306 16H10.3332C12.7225 16 14.6666 14.056 14.6666 11.6667V7.33334C14.6666 6.59797 14.0686 6 13.3333 6ZM13.9999 11.6667C13.9999 13.6885 12.3551 15.3333 10.3333 15.3333H8.2431C7.31144 15.3333 6.42278 14.9831 5.74147 14.347L1.99991 10.8552V10.7455C1.99991 10.3343 2.33422 10 2.74535 10C2.86025 10 2.97581 10.0273 3.07869 10.0788L5.21931 11.1491C5.5315 11.3057 5.89541 11.2884 6.19228 11.1055C6.48916 10.9219 6.66656 10.6038 6.66656 10.2546V1.33334C6.66656 0.965844 6.96572 0.666687 7.33322 0.666687C7.70072 0.666687 7.99988 0.965844 7.99988 1.33334V6.33334C7.99988 6.51759 8.14897 6.66669 8.33322 6.66669C8.51747 6.66669 8.66656 6.51759 8.66656 6.33334V6C8.66656 5.6325 8.96572 5.33334 9.33322 5.33334C9.70072 5.33334 9.99988 5.6325 9.99988 6V6.33334C9.99988 6.334 9.99988 6.33466 9.99988 6.33531V6.33563C10.0012 6.51856 10.1499 6.66669 10.3332 6.66669C10.5175 6.66669 10.6666 6.51759 10.6666 6.33334V6.32812C10.6692 5.96322 10.968 5.66666 11.3332 5.66666C11.7007 5.66666 11.9999 5.96581 11.9999 6.33331V7.33331C11.9999 7.51756 12.149 7.66666 12.3332 7.66666C12.5175 7.66666 12.6666 7.51756 12.6666 7.33331C12.6666 6.96581 12.9657 6.66666 13.3332 6.66666C13.7007 6.66666 13.9999 6.96581 13.9999 7.33334V11.6667Z" fill="black"/>
<g filter="url(#filter0_ddd_296708_626)">
<rect x="-55" y="-45" width="69" height="48" rx="4" fill="#404BBF" shape-rendering="crispEdges"/>
</g>
</g>
<defs>
<filter id="filter0_ddd_296708_626" x="-57" y="-45" width="73" height="52" filterUnits="userSpaceOnUse" color-interpolation-filters="sRGB">
<feFlood flood-opacity="0" result="BackgroundImageFix"/>
<feColorMatrix in="SourceAlpha" type="matrix" values="0 0 0 0 0 0 0 0 0 0 0 0 0 0 0 0 0 0 127 0" result="hardAlpha"/>
<feOffset dy="2"/>
<feGaussianBlur stdDeviation="1"/>
<feComposite in2="hardAlpha" operator="out"/>
<feColorMatrix type="matrix" values="0 0 0 0 0 0 0 0 0 0 0 0 0 0 0 0 0 0 0.12 0"/>
<feBlend mode="normal" in2="BackgroundImageFix" result="effect1_dropShadow_296708_626"/>
<feColorMatrix in="SourceAlpha" type="matrix" values="0 0 0 0 0 0 0 0 0 0 0 0 0 0 0 0 0 0 127 0" result="hardAlpha"/>
<feOffset dy="2"/>
<feGaussianBlur stdDeviation="0.5"/>
<feComposite in2="hardAlpha" operator="out"/>
<feColorMatrix type="matrix" values="0 0 0 0 0 0 0 0 0 0 0 0 0 0 0 0 0 0 0.08 0"/>
<feBlend mode="normal" in2="effect1_dropShadow_296708_626" result="effect2_dropShadow_296708_626"/>
<feColorMatrix in="SourceAlpha" type="matrix" values="0 0 0 0 0 0 0 0 0 0 0 0 0 0 0 0 0 0 127 0" result="hardAlpha"/>
<feOffset dy="3"/>
<feGaussianBlur stdDeviation="0.5"/>
<feComposite in2="hardAlpha" operator="out"/>
<feColorMatrix type="matrix" values="0 0 0 0 0 0 0 0 0 0 0 0 0 0 0 0 0 0 0.1 0"/>
<feBlend mode="normal" in2="effect2_dropShadow_296708_626" result="effect3_dropShadow_296708_626"/>
<feBlend mode="normal" in="SourceGraphic" in2="effect3_dropShadow_296708_626" result="shape"/>
</filter>
<clipPath id="clip0_296708_626">
<rect width="1440" height="2076" fill="white" transform="translate(-482 -213)"/>
</clipPath>
</defs>
</svg>
